REM DIRINDEX 1\2,1\3,1\4,1\5,1\6
REM DIRNAME cjc030,folder01,folder02,folder03,folder04,folder05
TITLE ""
FILE "Disc5Track05.mp3" MP3
  TRACK 01 AUDIO
    TITLE "2:cjc030_08455"
    INDEX 01 00:00:00
  TRACK 02 AUDIO
    TITLE "0:"
    INDEX 01 00:05:10
  TRACK 03 AUDIO
    TITLE "3:cjc030_08456"
    INDEX 01 00:05:59
  TRACK 04 AUDIO
    TITLE "0:"
    INDEX 01 00:06:65
  TRACK 05 AUDIO
    TITLE "4:cjc030_08457"
    INDEX 01 00:06:73
  TRACK 06 AUDIO
    TITLE "0:"
    INDEX 01 00:08:11
  TRACK 07 AUDIO
    TITLE "5:cjc030_08458"
    INDEX 01 00:08:19
  TRACK 08 AUDIO
    TITLE "0:"
    INDEX 01 00:09:26
  TRACK 09 AUDIO
    TITLE "6:cjc030_08459"
    INDEX 01 00:09:38
  TRACK 10 AUDIO
    TITLE "0:"
    INDEX 01 00:13:47
  TRACK 11 AUDIO
    TITLE "3:cjc030_08460"
    INDEX 01 00:14:21
  TRACK 12 AUDIO
    TITLE "0:"
    INDEX 01 00:15:48
  TRACK 13 AUDIO
    TITLE "4:cjc030_08461"
    INDEX 01 00:15:56
  TRACK 14 AUDIO
    TITLE "0:"
    INDEX 01 00:16:53
  TRACK 15 AUDIO
    TITLE "5:cjc030_08462"
    INDEX 01 00:16:61
  TRACK 16 AUDIO
    TITLE "0:"
    INDEX 01 00:18:11
  TRACK 17 AUDIO
    TITLE "6:cjc030_08463"
    INDEX 01 00:18:27
  TRACK 18 AUDIO
    TITLE "0:"
    INDEX 01 00:22:13
  TRACK 19 AUDIO
    TITLE "3:cjc030_08464"
    INDEX 01 00:22:66
  TRACK 20 AUDIO
    TITLE "0:"
    INDEX 01 00:23:73
  TRACK 21 AUDIO
    TITLE "4:cjc030_08465"
    INDEX 01 00:24:08
  TRACK 22 AUDIO
    TITLE "0:"
    INDEX 01 00:26:03
  TRACK 23 AUDIO
    TITLE "5:cjc030_08466"
    INDEX 01 00:26:11
  TRACK 24 AUDIO
    TITLE "0:"
    INDEX 01 00:27:20
  TRACK 25 AUDIO
    TITLE "6:cjc030_08467"
    INDEX 01 00:27:34
  TRACK 26 AUDIO
    TITLE "0:"
    INDEX 01 00:31:49
  TRACK 27 AUDIO
    TITLE "3:cjc030_08468"
    INDEX 01 00:32:23
  TRACK 28 AUDIO
    TITLE "0:"
    INDEX 01 00:33:22
  TRACK 29 AUDIO
    TITLE "4:cjc030_08469"
    INDEX 01 00:33:28
  TRACK 30 AUDIO
    TITLE "0:"
    INDEX 01 00:34:51
  TRACK 31 AUDIO
    TITLE "5:cjc030_08470"
    INDEX 01 00:34:61
  TRACK 32 AUDIO
    TITLE "0:"
    INDEX 01 00:35:55
  TRACK 33 AUDIO
    TITLE "6:cjc030_08471"
    INDEX 01 00:35:72
  TRACK 34 AUDIO
    TITLE "0:"
    INDEX 01 00:40:32
  TRACK 35 AUDIO
    TITLE "3:cjc030_08472"
    INDEX 01 00:41:08
  TRACK 36 AUDIO
    TITLE "0:"
    INDEX 01 00:42:23
  TRACK 37 AUDIO
    TITLE "4:cjc030_08473"
    INDEX 01 00:42:29
  TRACK 38 AUDIO
    TITLE "0:"
    INDEX 01 00:43:33
  TRACK 39 AUDIO
    TITLE "5:cjc030_08474"
    INDEX 01 00:43:42
  TRACK 40 AUDIO
    TITLE "0:"
    INDEX 01 00:44:56
  TRACK 41 AUDIO
    TITLE "3:cjc030_08475"
    INDEX 01 00:45:41
  TRACK 42 AUDIO
    TITLE "0:"
    INDEX 01 00:46:58
  TRACK 43 AUDIO
    TITLE "4:cjc030_08476"
    INDEX 01 00:46:66
  TRACK 44 AUDIO
    TITLE "0:"
    INDEX 01 00:48:08
  TRACK 45 AUDIO
    TITLE "5:cjc030_08477"
    INDEX 01 00:48:16
  TRACK 46 AUDIO
    TITLE "0:"
    INDEX 01 00:49:33
  TRACK 47 AUDIO
    TITLE "6:cjc030_08478"
    INDEX 01 00:49:49
  TRACK 48 AUDIO
    TITLE "0:"
    INDEX 01 00:53:08
  TRACK 49 AUDIO
    TITLE "3:cjc030_08479"
    INDEX 01 00:53:57
  TRACK 50 AUDIO
    TITLE "0:"
    INDEX 01 00:54:66
  TRACK 51 AUDIO
    TITLE "4:cjc030_08480"
    INDEX 01 00:54:70
  TRACK 52 AUDIO
    TITLE "0:"
    INDEX 01 00:57:50
  TRACK 53 AUDIO
    TITLE "5:cjc030_08481"
    INDEX 01 00:57:56
  TRACK 54 AUDIO
    TITLE "0:"
    INDEX 01 00:58:66
  TRACK 55 AUDIO
    TITLE "6:cjc030_08482"
    INDEX 01 00:59:06
  TRACK 56 AUDIO
    TITLE "0:"
    INDEX 01 01:02:65
  TRACK 57 AUDIO
    TITLE "3:cjc030_08483"
    INDEX 01 01:03:39
  TRACK 58 AUDIO
    TITLE "0:"
    INDEX 01 01:04:74
  TRACK 59 AUDIO
    TITLE "4:cjc030_08484"
    INDEX 01 01:05:05
  TRACK 60 AUDIO
    TITLE "0:"
    INDEX 01 01:08:17
  TRACK 61 AUDIO
    TITLE "5:cjc030_08485"
    INDEX 01 01:08:25
  TRACK 62 AUDIO
    TITLE "0:"
    INDEX 01 01:09:59
  TRACK 63 AUDIO
    TITLE "6:cjc030_08486"
    INDEX 01 01:09:73
  TRACK 64 AUDIO
    TITLE "0:"
    INDEX 01 01:13:45
